<?xml version="1.0" standalone="no"?>
<!DOCTYPE svg PUBLIC "-//W3C//DTD SVG 20010904//EN"
 "http://www.w3.org/TR/2001/REC-SVG-20010904/DTD/svg10.dtd">
<svg version="1.0" xmlns="http://www.w3.org/2000/svg"
 width="180.000000pt" height="180.000000pt" viewBox="0 0 180.000000 180.000000"
 preserveAspectRatio="xMidYMid meet">
<metadata>
Created by potrace 1.11, written by Peter Selinger 2001-2013
</metadata>
<g transform="translate(0.000000,180.000000) scale(0.100000,-0.100000)"
fill="#000000" stroke="none">
<path d="M239 1788 c-4 -11 -4 -283 0 -356 1 -21 5 -23 54 -20 l52 3 1 50 c2
77 2 76 27 73 21 -3 22 -1 21 82 -1 79 -2 85 -22 88 -21 3 -23 8 -26 67 -1 17
-9 20 -52 23 -36 2 -53 -1 -55 -10z"/>
<path d="M1459 1798 c-1 -2 -3 -21 -4 -43 -1 -32 -6 -41 -22 -43 -20 -3 -21
-9 -20 -88 2 -77 6 -89 30 -85 4 0 8 -11 8 -26 2 -32 5 -73 7 -90 1 -9 20 -13
52 -13 41 0 50 3 51 18 3 67 4 340 1 355 -3 13 -15 17 -53 17 -27 0 -50 -1
-50 -2z"/>
<path d="M452 1728 c-13 -50 -5 -167 18 -257 29 -116 51 -152 190 -316 42 -49
88 -106 103 -125 l26 -36 -66 -89 c-89 -119 -113 -179 -110 -270 5 -118 64
-217 159 -267 34 -17 60 -22 123 -22 98 0 155 23 219 89 63 64 90 139 83 227
-7 81 -33 137 -111 240 -31 40 -56 81 -56 92 0 10 20 46 44 80 45 61 52 70
135 162 107 119 158 241 155 372 -4 148 -22 183 -55 106 -60 -137 -80 -175
-131 -249 -30 -45 -63 -91 -74 -104 -37 -45 -166 -196 -183 -214 -17 -17 -23
-12 -143 131 -69 81 -143 174 -163 206 -33 51 -110 208 -128 259 -10 27 -26
20 -35 -15z m489 -905 c18 -21 45 -64 60 -98 44 -97 26 -170 -49 -202 -102
-42 -195 49 -163 159 11 35 52 106 96 165 14 19 20 17 56 -24z"/>
<path d="M150 1605 l0 -105 30 0 30 0 0 105 0 105 -30 0 -30 0 0 -105z"/>
<path d="M566 1688 c12 -40 63 -136 76 -144 7 -5 24 -8 38 -8 23 0 26 5 30 49
6 52 19 82 46 109 14 15 6 16 -91 16 -106 0 -106 0 -99 -22z"/>
<path d="M845 1696 c-60 -30 -82 -59 -88 -119 -5 -45 21 -106 58 -135 58 -46
146 -38 199 17 55 58 44 177 -21 225 -34 25 -109 31 -148 12z"/>
<path d="M1065 1674 c21 -31 30 -59 38 -124 1 -8 10 -14 20 -14 9 1 24 2 32 3
12 1 95 146 95 166 0 3 -47 5 -105 5 l-104 0 24 -36z"/>
<path d="M1590 1605 l0 -105 29 0 30 0 0 105 1 105 -30 0 -30 0 0 -105z"/>
<path d="M790 1372 c1 -14 105 -155 115 -155 8 0 115 147 115 158 0 2 -17 -3
-37 -12 -47 -19 -110 -19 -157 1 -20 8 -36 12 -36 8z"/>
<path d="M467 1125 c-78 -100 -132 -191 -158 -267 -31 -91 -34 -111 -33 -228
1 -85 6 -120 27 -186 66 -201 231 -362 432 -419 75 -22 220 -26 305 -9 178 37
339 164 422 335 53 109 70 172 73 278 5 190 -66 355 -234 543 l-24 28 -24 -28
c-14 -15 -36 -43 -50 -64 l-25 -36 47 -64 c149 -204 179 -396 92 -577 -120
-246 -432 -332 -663 -183 -162 105 -242 295 -203 484 14 70 77 199 133 276 44
60 46 64 32 90 -15 28 -78 103 -86 101 -3 0 -31 -33 -63 -74z"/>
</g>
</svg>
